<svg xmlns="http://www.w3.org/2000/svg" width="15.993" height="32" viewBox="0 0 15.993 32"><path d="M23.818,2.25H12.489A2.35,2.35,0,0,0,10.125,4.6V31.814a2.42,2.42,0,0,0,2.364,2.436H23.811a2.372,2.372,0,0,0,2.307-2.436V4.6A2.292,2.292,0,0,0,23.818,2.25ZM17.054,3.893H19.2a.286.286,0,0,1,0,.571H17.054a.286.286,0,1,1,0-.571Zm1.107,29.286A1.243,1.243,0,1,1,19.4,31.936,1.244,1.244,0,0,1,18.161,33.179Zm6.679-3.5H11.411a.143.143,0,0,1-.143-.143V6.036a.143.143,0,0,1,.143-.143H24.839a.143.143,0,0,1,.143.143v23.5A.143.143,0,0,1,24.839,29.679Z" transform="translate(-10.125 -2.25)" fill="#333"/></svg>