<svg xmlns="http://www.w3.org/2000/svg" width="32" height="25.6" viewBox="0 0 32 25.6"><path d="M26.4,22.4H5.6a.8.8,0,0,0-.8.8v1.6a.8.8,0,0,0,.8.8H26.4a.8.8,0,0,0,.8-.8V23.2A.8.8,0,0,0,26.4,22.4Zm3.2-16a2.4,2.4,0,0,0-2.4,2.4,2.351,2.351,0,0,0,.22.99L23.8,11.96a1.6,1.6,0,0,1-2.21-.58L17.515,4.25a2.4,2.4,0,1,0-3.03,0L10.41,11.38a1.6,1.6,0,0,1-2.21.58L4.585,9.79A2.4,2.4,0,1,0,2.4,11.2a2.451,2.451,0,0,0,.385-.04L6.4,20.8H25.6l3.615-9.64a2.451,2.451,0,0,0,.385.04,2.4,2.4,0,0,0,0-4.8Z" fill="#333"/></svg>