<svg xmlns="http://www.w3.org/2000/svg" width="32" height="30.821" viewBox="0 0 32 30.821"><path d="M2.05,7.916c-2.834,4.072-2.483,9.368-.316,13.692.049.105.1.206.158.306a2.153,2.153,0,0,0,.1.2,1.127,1.127,0,0,0,.063.111c.035.069.072.136.108.2l.21.354c.039.065.076.129.12.195.073.125.16.25.236.375.035.052.067.1.105.156q.194.305.414.593c.1.143.208.282.32.421.036.051.076.1.113.152l.3.359c.036.041.072.089.111.132.131.158.27.311.409.466,0,0,0,.005.007.009a4.179,4.179,0,0,0,.566.587c.107.109.214.219.327.326l.135.129c.148.139.3.278.453.411,0,0,0,0,.007,0l.076.067c.136.119.274.238.414.347l.167.14c.113.091.231.178.347.267l.182.139c.124.093.256.186.383.276.047.033.093.067.142.1l.039.031.375.247.16.107c.2.125.391.244.585.362.056.028.112.059.164.091.144.083.294.167.439.244.08.045.163.084.246.125.1.056.2.111.311.167a.432.432,0,0,1,.075.031c.044.02.085.041.128.063.16.08.327.156.5.232a1.088,1.088,0,0,1,.1.045c.192.084.384.164.583.243.045.013.093.036.14.053.18.068.366.138.549.2l.067.024c.2.069.406.136.613.2.048.013.1.031.148.044a6.491,6.491,0,0,0,.631.182c13.7,2.5,17.678-8.236,17.678-8.236-3.344,4.355-9.278,5.5-14.9,4.225-.208-.048-.417-.115-.626-.176q-.381-.112-.757-.242l-.083-.032c-.182-.061-.356-.129-.534-.2q-.072-.03-.147-.055c-.2-.079-.387-.16-.577-.244-.041-.013-.076-.032-.117-.048q-.242-.111-.482-.227c-.049-.021-.093-.044-.142-.069-.125-.059-.251-.125-.374-.19q-.127-.061-.25-.128c-.151-.08-.3-.167-.453-.25-.045-.032-.1-.059-.15-.088q-.3-.175-.585-.359-.081-.05-.158-.105-.212-.131-.417-.275c-.047-.031-.089-.064-.138-.1q-.2-.138-.392-.283c-.056-.045-.116-.088-.176-.133-.117-.092-.236-.18-.354-.278l-.158-.125q-.227-.183-.446-.375a.345.345,0,0,0-.049-.04l-.463-.422-.133-.125c-.109-.111-.222-.218-.334-.327l-.129-.133q-.212-.21-.413-.431l-.02-.021c-.142-.155-.279-.312-.418-.473-.036-.041-.069-.085-.107-.129l-.3-.37q-.231-.3-.454-.6C2.885,15.809,1.757,9.935,4.252,5.117m6.591-.63A9.83,9.83,0,0,0,10.5,14.5a12.148,12.148,0,0,0,.9,1.511,7.08,7.08,0,0,0,1.057,1.316c.143.163.3.32.459.479l.12.12q.228.22.467.434l.02.017q.27.236.553.457c.045.031.084.067.128.1.187.144.375.283.57.421l.02.012c.083.06.171.115.264.174.037.024.08.056.12.08.142.091.28.176.423.263.023.009.043.021.064.031.12.073.251.144.376.21.044.027.087.047.132.072.089.044.178.091.263.136l.043.019c.18.088.364.171.545.254.045.017.084.032.123.051.148.064.3.125.447.183.067.023.129.049.192.069.136.051.279.1.414.144l.187.06a4.518,4.518,0,0,0,.6.172c10.573,1.753,13.021-6.391,13.021-6.391-2.2,3.172-6.469,4.683-11.015,3.5q-.3-.078-.6-.174c-.064-.017-.12-.037-.182-.056-.139-.048-.282-.095-.417-.146l-.192-.072c-.15-.06-.3-.116-.447-.18-.045-.02-.087-.033-.121-.053-.187-.084-.375-.167-.557-.256l-.275-.143-.159-.08c-.123-.064-.236-.131-.354-.2a.828.828,0,0,1-.083-.045c-.142-.088-.288-.174-.423-.264-.045-.025-.087-.056-.129-.083l-.278-.182c-.192-.133-.38-.278-.57-.417-.043-.039-.084-.071-.125-.105a12.693,12.693,0,0,1-4.323-6.152,9.559,9.559,0,0,1,.746-7.665m5.723-.2a6.163,6.163,0,0,0-.494,5.947,8.393,8.393,0,0,0,4.811,4.492c.087.033.171.061.26.093l.117.036c.123.039.247.084.374.112,5.842,1.127,7.423-3,7.848-3.606-1.391,2-3.723,2.476-6.584,1.781a6.467,6.467,0,0,1-.689-.214,8.469,8.469,0,0,1-.824-.339,8.705,8.705,0,0,1-1.442-.881C19.053,7.4,17.466,3.7,19.137.679" transform="translate(-0.016 -0.68)" fill="#333"/></svg>