<svg xmlns="http://www.w3.org/2000/svg" xmlns:xlink="http://www.w3.org/1999/xlink" width="488.772" height="112.808" viewBox="0 0 488.772 112.808"><defs><clipPath id="a"><rect width="98" height="48" transform="translate(0.109 0.414)" fill="#36cd77"/></clipPath><clipPath id="b"><path d="M739-97.5h48.107v58.437H739Z" transform="translate(-739 97.5)" fill="none"/></clipPath><clipPath id="c"><path d="M739-97.5h48.134v57.82H739Z" transform="translate(-739 97.5)" fill="none"/></clipPath><clipPath id="d"><path d="M739-46.446h41.743V-97.5H739Z" transform="translate(-739 97.5)" fill="none"/></clipPath></defs><g transform="translate(-690 -244.946)"><g transform="translate(144 557)"><path d="M0,0H84.794L65.951,42.4H0Z" transform="translate(646.216 -257.203)" fill="#7f5517"/><rect width="42" height="38" transform="translate(646 -300)" fill="#ffab2e"/></g><g transform="translate(144 557)"><rect width="85" height="38" transform="translate(546 -300)" fill="#0b6ffb"/><path d="M0,0H42.4L23.554,42.4H0Z" transform="translate(546 -257.203)" fill="#05377d"/></g><g transform="translate(155 554)"><g transform="translate(728.891 -307.414)"><g transform="translate(0 0)" clip-path="url(#a)"><ellipse cx="44" cy="43" rx="44" ry="43" transform="translate(4.109 11.414)" fill="#36cd77"/></g></g><g transform="translate(728.538 -254.837)" clip-path="url(#b)"><ellipse cx="44" cy="43" rx="44" ry="43" transform="translate(4.462 -42.163)" fill="#1b663b"/></g></g><g transform="translate(162 556.6)"><path d="M0,0H84.794L65.951,36.744H18.843Z" transform="translate(828.647 -297.6)" fill="#e4632b"/><path d="M18.843,0H65.951L84.794,42.868H0Z" transform="translate(828.647 -256.732)" fill="#713115"/></g><g transform="translate(144 557)"><path d="M.022-.034h47L47,38H0Z" transform="translate(946 -299)" fill="#56b5f9"/><path d="M.042-.057h41L41,43H0Z" transform="translate(946 -257)" fill="#2b5a7c"/><g transform="translate(986.638 -257.067)" clip-path="url(#c)"><ellipse cx="45.517" cy="43.04" rx="45.517" ry="43.04" transform="translate(-45.512 -43.006)" fill="#2b5a7c"/></g><g transform="translate(992.5 -312.054)" clip-path="url(#d)"><ellipse cx="39.472" cy="38.004" rx="39.472" ry="38.004" transform="translate(-39.468 13.02)" fill="#56b5f9"/></g></g></g></svg>