<svg xmlns="http://www.w3.org/2000/svg" width="32" height="24.002" viewBox="0 0 32 24.002"><path d="M15.092,19.271C15.077,19.3,15.062,19.325,15.092,19.271Zm12.457-4.35a6.558,6.558,0,0,0-2.9.675A6.158,6.158,0,0,1,24,14.091a4.017,4.017,0,0,1-.055-1.265,10.653,10.653,0,0,1,.38-1.36c0-.055-.07-.33-.715-.335s-1.2.125-1.265.3a6.142,6.142,0,0,0-.265.955,23.168,23.168,0,0,1-1.955,3.765,3.882,3.882,0,0,1-.445-1.1,4.017,4.017,0,0,1-.055-1.265,10.653,10.653,0,0,1,.38-1.36c-.005-.055-.07-.33-.715-.335s-1.2.125-1.265.3-.135.57-.265.955-1.695,3.865-2.1,4.77c-.21.46-.39.83-.52,1.08-.02.04-.035.065-.045.085.015-.025.025-.05.025-.04-.11.215-.175.335-.175.335v0c-.085.16-.18.305-.225.305a2.074,2.074,0,0,1,.015-1c.235-1.21.79-3.09.785-3.155,0-.035.105-.36-.365-.535a.589.589,0,0,0-.66.11c-.04,0-.07.1-.07.1s.505-2.12-.97-2.12a4.4,4.4,0,0,0-2.829,1.925c-.4.215-1.25.68-2.15,1.175l-1.035.57c-.025-.025-.045-.05-.07-.075-1.79-1.91-5.094-3.26-4.954-5.825.05-.935.375-3.39,6.354-6.37,4.9-2.44,8.818-1.77,9.492-.28.97,2.125-2.095,6.08-7.183,6.65a3.831,3.831,0,0,1-3.214-.815c-.265-.3-.305-.31-.405-.255-.165.09-.06.35,0,.505A3.013,3.013,0,0,0,9.3,11.931a9.742,9.742,0,0,0,5.959-.59c3.089-1.19,5.494-4.505,4.789-7.28-.718-2.82-5.394-3.745-9.816-2.175A22.241,22.241,0,0,0,2.7,6.206C.261,8.486-.128,10.471.032,11.3c.57,2.945,4.629,4.865,6.253,6.285-.08.045-.155.085-.225.125-.815.405-3.909,2.025-4.684,3.735-.875,1.94.145,3.33.815,3.52a4.992,4.992,0,0,0,5.379-2.18,5.414,5.414,0,0,0,.48-4.975c-.005-.015-.015-.025-.02-.04.21-.125.425-.25.64-.375.415-.245.82-.47,1.175-.665a7.766,7.766,0,0,0-.42,2.13,4.426,4.426,0,0,0,.955,3.085,1.049,1.049,0,0,0,.77.25c.69,0,1-.57,1.345-1.25.425-.83.8-1.8.8-1.8s-.47,2.61.815,2.61c.47,0,.94-.605,1.15-.915v0s.01-.02.035-.06c.05-.075.075-.12.075-.12v-.015c.19-.325.605-1.07,1.23-2.3.81-1.59,1.585-3.575,1.585-3.575a10.062,10.062,0,0,0,.31,1.29,12.078,12.078,0,0,0,.67,1.5c-.19.26-.305.41-.305.41a.015.015,0,0,0,0,.01c-.15.2-.32.415-.5.625a17.648,17.648,0,0,0-1.5,1.88.511.511,0,0,0,.14.685,1.215,1.215,0,0,0,.785.125,3.467,3.467,0,0,0,1.175-.27,4.11,4.11,0,0,0,1.01-.53,2.257,2.257,0,0,0,.97-1.99,4.141,4.141,0,0,0-.365-1.41c.055-.08.115-.165.17-.25a26.58,26.58,0,0,0,1.755-3.031,10.062,10.062,0,0,0,.31,1.29,8.82,8.82,0,0,0,.57,1.285,5.5,5.5,0,0,0-1.7,2.205c-.37,1.065-.08,1.545.465,1.655A1.678,1.678,0,0,0,23,20.085a3.973,3.973,0,0,0,1.08-.555,2.416,2.416,0,0,0,1.19-1.98A3.72,3.72,0,0,0,25,16.38a6.1,6.1,0,0,1,3.1-.36c2.784.325,3.329,2.065,3.224,2.79a1.849,1.849,0,0,1-.885,1.25c-.195.12-.255.165-.24.255.025.13.115.125.28.1A2.172,2.172,0,0,0,32,18.475c.08-1.7-1.555-3.57-4.45-3.555ZM6.09,22.156c-.92,1.005-2.21,1.385-2.764,1.065-.6-.346-.36-1.825.775-2.9a14.815,14.815,0,0,1,2.17-1.62c.135-.08.33-.2.57-.345.04-.025.06-.035.06-.035.045-.03.1-.055.145-.085a3.991,3.991,0,0,1-.955,3.915Zm6.718-4.57c-.32.785-.995,2.785-1.4,2.68-.35-.09-.565-1.615-.07-3.115a6.9,6.9,0,0,1,1.1-2.005c.5-.565,1.06-.745,1.19-.52C13.793,14.921,13.008,17.1,12.808,17.586Zm5.55,2.65c-.135.07-.26.115-.32.08-.045-.025.055-.12.055-.12s.7-.745.97-1.085c.16-.2.345-.435.545-.7,0,.025,0,.05,0,.08a2.319,2.319,0,0,1-1.256,1.74Zm4.279-.975c-.1-.07-.085-.305.25-1.035A3.886,3.886,0,0,1,23.837,17a1.809,1.809,0,0,1,.1.54,1.763,1.763,0,0,1-1.295,1.72Z" transform="translate(0 -1.125)" fill="#333"/></svg>